<?xml version="1.0" encoding="UTF-8"?>
<svg xmlns="http://www.w3.org/2000/svg" xmlns:xlink="http://www.w3.org/1999/xlink" width="100px" height="100px" viewBox="0 0 100 100" version="1.1">
<g id="surface1">
<path style=" stroke:none;fill-rule:nonzero;fill:rgb(0%,0%,0%);fill-opacity:1;" d="M 45.402344 4.769531 C 45 4.855469 43.390625 5.085938 41.808594 5.34375 C 28.160156 7.5 15.429688 17.210938 9.109375 30.257812 C 5.949219 36.753906 4.769531 42.125 4.769531 50 C 4.742188 56.121094 5.171875 58.996094 6.78125 63.9375 C 11.722656 79.023438 23.679688 90.171875 39.050781 93.996094 C 59.109375 99.023438 80.230469 89.65625 89.941406 71.464844 C 98.277344 55.832031 96.839844 36.925781 86.292969 22.757812 C 83.449219 18.964844 78.9375 14.710938 74.710938 11.867188 C 70.746094 9.167969 63.277344 6.207031 58.191406 5.289062 C 55.777344 4.855469 47.097656 4.511719 45.402344 4.769531 Z M 53.734375 45.230469 C 53.734375 66.464844 53.707031 67.789062 53.246094 67.929688 C 51.953125 68.332031 46.636719 68.996094 43.332031 69.167969 C 29.769531 69.828125 22.875 64.453125 22.929688 53.304688 C 22.929688 50.71875 23.074219 49.710938 23.679688 47.789062 C 26.003906 40.574219 32.070312 36.753906 40.691406 37.125 L 43.964844 37.269531 L 43.964844 22.699219 L 53.734375 22.699219 Z M 69.253906 27.730469 L 69.253906 32.757812 L 59.484375 32.757812 L 59.484375 22.699219 L 69.253906 22.699219 Z M 69.253906 51.351562 C 69.253906 58.90625 69.109375 66.234375 68.964844 67.671875 C 68.191406 74.597656 65.746094 78.535156 60.316406 81.695312 L 58.964844 82.472656 L 54.484375 80.316406 C 52.011719 79.136719 50 78.101562 50 78.015625 C 50 77.929688 50.777344 77.5 51.695312 77.011719 C 54.195312 75.777344 56.636719 73.363281 57.585938 71.292969 C 59.109375 67.902344 59.222656 66.523438 59.398438 51.496094 L 59.539062 37.644531 L 69.253906 37.644531 Z M 69.253906 51.351562 "/>
<path style=" stroke:none;fill-rule:nonzero;fill:rgb(0%,0%,0%);fill-opacity:1;" d="M 39.511719 45.144531 C 37.355469 45.375 36.550781 45.691406 35.257812 46.839844 C 32.5 49.253906 32.125 55.804688 34.539062 58.734375 C 35.863281 60.34375 37.386719 61.003906 40.144531 61.148438 C 41.4375 61.207031 42.816406 61.207031 43.21875 61.09375 L 43.964844 60.917969 L 43.964844 53.160156 C 43.964844 48.878906 43.878906 45.402344 43.765625 45.402344 C 43.621094 45.375 43.015625 45.289062 42.386719 45.171875 C 41.753906 45.058594 40.460938 45.027344 39.511719 45.144531 Z M 39.511719 45.144531 "/>
</g>
</svg>
