<?xml version="1.0" encoding="UTF-8"?>
<svg xmlns="http://www.w3.org/2000/svg" xmlns:xlink="http://www.w3.org/1999/xlink" width="100px" height="100px" viewBox="0 0 100 100" version="1.1">
<defs>
<linearGradient id="linear0" gradientUnits="userSpaceOnUse" x1="19.075001" y1="18.782" x2="34.897999" y2="34.658001" gradientTransform="matrix(1.5625,0,0,1.5625,0,0)">
<stop offset="0" style="stop-color:rgb(21.960784%,49.411765%,72.156863%);stop-opacity:1;"/>
<stop offset="1" style="stop-color:rgb(21.176471%,41.176471%,58.039216%);stop-opacity:1;"/>
</linearGradient>
<linearGradient id="linear1" gradientUnits="userSpaceOnUse" x1="28.809" y1="28.882" x2="45.803001" y2="45.162998" gradientTransform="matrix(1.5625,0,0,1.5625,0,0)">
<stop offset="0" style="stop-color:rgb(100%,87.843137%,32.156863%);stop-opacity:1;"/>
<stop offset="1" style="stop-color:rgb(100%,76.470588%,19.215686%);stop-opacity:1;"/>
</linearGradient>
</defs>
<g id="surface1">
<path style=" stroke:none;fill-rule:nonzero;fill:url(#linear0);" d="M 49.820312 25 C 37.125 25 37.917969 30.503906 37.917969 30.503906 L 37.933594 36.207031 L 50.046875 36.207031 L 50.046875 37.917969 L 33.121094 37.917969 C 33.121094 37.917969 25 36.996094 25 49.804688 C 25 62.613281 32.089844 62.160156 32.089844 62.160156 L 36.320312 62.160156 L 36.320312 56.214844 C 36.320312 56.214844 36.09375 49.125 43.296875 49.125 L 55.308594 49.125 C 55.308594 49.125 62.058594 49.234375 62.058594 42.601562 L 62.058594 31.636719 C 62.058594 31.636719 63.085938 25 49.820312 25 Z M 43.140625 28.835938 C 44.34375 28.835938 45.320312 29.808594 45.320312 31.015625 C 45.320312 32.21875 44.34375 33.195312 43.140625 33.195312 C 42.5625 33.195312 42.007812 32.964844 41.597656 32.554688 C 41.191406 32.148438 40.960938 31.59375 40.960938 31.015625 C 40.960938 29.808594 41.9375 28.835938 43.140625 28.835938 Z M 43.140625 28.835938 "/>
<path style=" stroke:none;fill-rule:nonzero;fill:url(#linear1);" d="M 50.179688 74.738281 C 62.875 74.738281 62.082031 69.234375 62.082031 69.234375 L 62.066406 63.53125 L 49.953125 63.53125 L 49.953125 61.820312 L 66.878906 61.820312 C 66.878906 61.820312 75 62.742188 75 49.933594 C 75 37.125 67.910156 37.582031 67.910156 37.582031 L 63.679688 37.582031 L 63.679688 43.523438 C 63.679688 43.523438 63.90625 50.613281 56.703125 50.613281 L 44.691406 50.613281 C 44.691406 50.613281 37.941406 50.503906 37.941406 57.136719 L 37.941406 68.101562 C 37.941406 68.101562 36.914062 74.738281 50.179688 74.738281 Z M 56.859375 70.90625 C 56.28125 70.90625 55.726562 70.675781 55.316406 70.265625 C 54.910156 69.859375 54.679688 69.304688 54.679688 68.726562 C 54.679688 67.523438 55.65625 66.546875 56.859375 66.546875 C 58.0625 66.546875 59.039062 67.519531 59.039062 68.726562 C 59.039062 69.929688 58.0625 70.90625 56.859375 70.90625 Z M 56.859375 70.90625 "/>
</g>
</svg>
