<?xml version="1.0" standalone="no"?>
<!DOCTYPE svg PUBLIC "-//W3C//DTD SVG 20010904//EN"
 "http://www.w3.org/TR/2001/REC-SVG-20010904/DTD/svg10.dtd">
<svg version="1.0" xmlns="http://www.w3.org/2000/svg"
 width="106" height="106" viewBox="0 0 280.000000 280.000000"
 preserveAspectRatio="xMidYMid meet">

<g transform="translate(0.000000,280.000000) scale(0.100000,-0.100000)"
fill="#F01960" stroke="none">
<path d="M772 2100 c-35 -21 -62 -72 -62 -115 0 -14 32 -86 70 -160 39 -74 70
-137 70 -140 0 -3 -54 -5 -119 -5 -143 0 -167 -7 -187 -57 l-16 -37 58 -116
c33 -63 101 -194 152 -290 52 -96 123 -231 159 -300 79 -150 95 -170 139 -170
47 0 74 29 134 145 29 55 55 103 59 107 3 4 39 -58 80 -137 41 -80 85 -154 98
-166 16 -16 39 -24 75 -26 76 -6 104 15 157 118 24 46 72 136 106 199 67 123
191 357 298 560 36 69 104 197 151 285 102 189 107 218 52 281 l-34 39 -703 3
c-692 2 -705 2 -737 -18z m782 -436 c9 -8 16 -25 16 -36 0 -37 -286 -575 -313
-590 -11 -5 -29 -7 -42 -4 -25 6 -42 35 -165 271 -34 66 -84 161 -111 211 -54
101 -56 110 -33 142 15 22 16 22 324 22 267 0 311 -2 324 -16z"/>
</g>
</svg>
